<svg height="496pt" viewBox="0 0 496 496" width="496pt" xmlns="http://www.w3.org/2000/svg"><path d="m488 248c0 132.546875-107.453125 240-240 240s-240-107.453125-240-240 107.453125-240 240-240 240 107.453125 240 240zm0 0" fill="#85d3c1"/><path d="m200 192c0 13.28125 5.359375 25.28125 14.078125 33.921875 8.640625 8.71875 20.640625 14.078125 33.921875 14.078125 26.480469 0 48-21.519531 48-48 4.398438 0 8.398438-1.761719 11.28125-4.71875 2.957031-2.882812 4.71875-6.882812 4.71875-11.28125 0-7.519531-5.199219-13.839844-12.238281-15.519531 2.957031-9.199219 7.4375-17.921875 13.117187-25.839844 3.839844-5.359375 7.121094-11.121094 9.519532-17.359375 41.921874 26.078125 69.601562 73.519531 69.601562 126.160156v28.558594c0 49.921875-25.441406 93.921875-64 119.679688v80.320312l.71875 2v.078125c-25.199219 9.042969-52.398438 13.921875-80.71875 13.921875-20.71875 0-40.800781-2.640625-59.921875-7.601562l11.921875-.398438v-64h-64l-8-88-24-8v-80c0-52.238281 27.839844-97.921875 69.441406-123.121094 2.320313 6.160156 5.4375 11.921875 9.199219 17.199219 5.839844 8.160156 10.398437 17.121094 13.359375 26.480469-2.800781.640625-5.28125 2.160156-7.28125 4.160156-2.957031 2.882812-4.71875 6.882812-4.71875 11.28125 0 8.800781 7.199219 16 16 16zm0 0" fill="#f5f7fa"/><path d="m200 192h96c0 26.480469-21.519531 48-48 48-13.28125 0-25.28125-5.359375-33.921875-14.078125-8.71875-8.640625-14.078125-20.640625-14.078125-33.921875zm0 0" fill="#ff958a"/><path d="m299.761719 160.480469c7.039062 1.679687 12.238281 8 12.238281 15.519531 0 4.398438-1.761719 8.398438-4.71875 11.28125-2.882812 2.957031-6.882812 4.71875-11.28125 4.71875h-96c-8.800781 0-16-7.199219-16-16 0-4.398438 1.761719-8.398438 4.71875-11.28125 2-2 4.480469-3.519531 7.28125-4.160156 1.28125-.398438 2.640625-.558594 4-.558594h96c1.28125 0 2.558594.160156 3.761719.480469zm0 0" fill="#ff958a"/><path d="m322.398438 117.28125c-2.398438 6.238281-5.679688 12-9.519532 17.359375-5.679687 7.917969-10.160156 16.640625-13.117187 25.839844-1.203125-.320313-2.480469-.480469-3.761719-.480469h-96c-1.359375 0-2.71875.160156-4 .558594-2.960938-9.359375-7.519531-18.320313-13.359375-26.480469-3.761719-5.277344-6.878906-11.039063-9.199219-17.199219-4.800781-12.238281-6.640625-25.917968-4.640625-40.238281 4.878907-35.601563 34.160157-64.082031 69.839844-68.082031 1.597656-.238282 3.199219-.320313 4.71875-.398438 1.519531-.160156 3.121094-.160156 4.640625-.160156 1.601562 0 3.199219 0 4.71875.160156 42 2.398438 75.28125 37.28125 75.28125 79.839844 0 10.320312-2 20.238281-5.601562 29.28125zm0 0" fill="#f9d48a"/><path d="m272 88c0 13.253906-10.746094 24-24 24s-24-10.746094-24-24 10.746094-24 24-24 24 10.746094 24 24zm0 0" fill="#f5f7fa"/><g fill="#232323"><path d="m248 0c-.222656 0-.449219.015625-.671875.015625-.167969 0-.34375.0078125-.511719.015625-136.207031.640625-246.816406 111.617188-246.816406 247.96875 0 136.753906 111.246094 248 248 248s248-111.246094 248-248-111.246094-248-248-248zm58.433594 129.960938c-5.027344 6.941406-9.042969 14.34375-12.089844 22.039062h-38.34375v-33.136719c13.769531-3.574219 24-15.992187 24-30.863281 0-17.648438-14.351562-32-32-32s-32 14.351562-32 32c0 14.871094 10.230469 27.289062 24 30.863281v33.136719h-38.574219c-3.089843-7.832031-7.160156-15.398438-12.226562-22.542969-10.597657-14.9375-15.039063-33.3125-12.496094-51.746093 4.410156-31.847657 30.832031-57.597657 62.839844-61.230469 2.546875-.28125 5.074219-.425781 7.585937-.457031.09375 0 .191406-.007813.285156-.007813 17.984376-.136719 34.96875 6.183594 48.507813 18.265625 15.308594 13.65625 24.078125 33.230469 24.078125 53.71875 0 15.167969-4.695312 29.6875-13.566406 41.960938zm-10.433594 54.039062h-96c-4.414062 0-8-3.585938-8-8s3.585938-8 8-8h96c4.414062 0 8 3.585938 8 8s-3.585938 8-8 8zm-8.808594 16c-3.71875 18.230469-19.871094 32-39.191406 32s-35.472656-13.769531-39.191406-32zm-39.191406-96c-8.824219 0-16-7.175781-16-16s7.175781-16 16-16 16 7.175781 16 16-7.175781 16-16 16zm-232 144c0-107.160156 73.046875-197.542969 171.953125-224.070312-14.335937 13.4375-24.304687 31.511718-27.089844 51.597656-1.785156 12.914062-.664062 25.785156 3 37.898437-42.078125 28.039063-67.863281 75.6875-67.863281 126.574219v85.769531l24.503906 8.167969 8.191406 90.0625h63.304688v49.128906c-100.953125-25.128906-176-116.511718-176-225.128906zm192 228.480469v-52.480469h8c39.703125 0 72-32.296875 72-72v-8h-16v8c0 30.871094-25.128906 56-56 56h-72.695312l-7.816407-85.9375-23.488281-7.832031v-74.230469c0-44.441406 22.007812-86.078125 58.070312-111.390625 1.816407 3.46875 3.785157 6.871094 6.082032 10.101563 4.03125 5.695312 7.34375 11.664062 9.894531 17.839843-6.054687 4.359375-10.046875 11.425781-10.046875 19.449219 0 10.574219 6.921875 19.472656 16.433594 22.664062 3.308594 27.734376 26.949218 49.335938 55.566406 49.335938s52.257812-21.601562 55.566406-49.335938c9.511719-3.191406 16.433594-12.089843 16.433594-22.664062 0-8.097656-4.054688-15.230469-10.207031-19.585938 2.480469-5.933593 5.6875-11.652343 9.605469-17.078124 2.363281-3.273438 4.433593-6.6875 6.304687-10.191407 36.199219 26.039063 58.296875 68.800781 58.296875 114.3125v28.542969c0 45.457031-22.601562 87.726562-60.457031 113.070312l-3.542969 2.378907v81.054687c-22.679688 7.425782-46.871094 11.496094-72 11.496094-13.648438 0-26.992188-1.246094-40-3.519531zm128-13.863281v-66.707032c40.160156-28.542968 64-74.542968 64-123.910156v-28.542969c0-51.914062-25.824219-100.65625-67.953125-129.457031 2.59375-8.335938 3.953125-17.070312 3.953125-26 0-24.257812-10.136719-47.414062-27.761719-64.023438 98.800781 26.597657 171.761719 116.933594 171.761719 224.023438 0 96.785156-59.601562 179.871094-144 214.617188zm0 0"/><path d="m408 0h16v16h-16zm0 0"/><path d="m408 32h16v16h-16zm0 0"/><path d="m424 16h16v16h-16zm0 0"/><path d="m392 16h16v16h-16zm0 0"/><path d="m368 80h16v16h-16zm0 0"/><path d="m368 112h16v16h-16zm0 0"/><path d="m384 96h16v16h-16zm0 0"/><path d="m352 96h16v16h-16zm0 0"/><path d="m120 56h16v16h-16zm0 0"/><path d="m120 88h16v16h-16zm0 0"/><path d="m136 72h16v16h-16zm0 0"/><path d="m104 72h16v16h-16zm0 0"/><path d="m144 192h16v16h-16zm0 0"/><path d="m144 224h16v16h-16zm0 0"/><path d="m160 208h16v16h-16zm0 0"/><path d="m128 208h16v16h-16zm0 0"/><path d="m424 152h16v16h-16zm0 0"/><path d="m424 184h16v16h-16zm0 0"/><path d="m440 168h16v16h-16zm0 0"/><path d="m408 168h16v16h-16zm0 0"/><path d="m72 120h16v16h-16zm0 0"/><path d="m72 152h16v16h-16zm0 0"/><path d="m88 136h16v16h-16zm0 0"/><path d="m56 136h16v16h-16zm0 0"/></g></svg>