<svg id="Capa_1" enable-background="new 0 0 512 512" height="512" viewBox="0 0 512 512" width="512" xmlns="http://www.w3.org/2000/svg"><g><path d="m353.4 362.1v149.9l-64.93-25.22-32.47-29.31-32.47 29.31-64.93 25.22v-149.9z" fill="#25d9f8"/><path d="m353.4 362.1v149.9l-64.93-25.22-32.47-29.31v-95.37z" fill="#00bff1"/><path d="m288.47 362.1v124.68l-32.47-12.61-32.47 12.61v-124.68z" fill="#fd5e60"/><path d="m288.47 362.1v124.68l-32.47-12.61v-112.07z" fill="#e21759"/><path d="m450.8 194.8c0 107.58-87.22 194.79-194.8 194.79s-194.8-87.21-194.8-194.79c0-107.59 87.22-194.8 194.8-194.8s194.8 87.21 194.8 194.8z" fill="#ffc648"/><path d="m450.8 194.8c0 107.58-87.22 194.79-194.8 194.79v-389.59c107.58 0 194.8 87.21 194.8 194.8z" fill="#fc9d56"/><path d="m330.11 189.25-8.32-25.61-36.16-5.25-16.17-32.77h-26.92l-16.17 32.77-36.16 5.25-8.32 25.61 26.16 25.5-6.17 36.01 21.78 15.83 32.34-17.01 32.34 17.01 21.78-15.83-6.17-36.01z" fill="#fff066"/><path d="m303.95 214.75 6.17 36.01-21.78 15.83-32.34-17.01v-123.96h13.46l16.17 32.77 36.16 5.25 8.32 25.61z" fill="#ffc648"/><path d="m256 59.3c-74.71 0-135.5 60.78-135.5 135.5 0 74.71 60.79 135.5 135.5 135.5s135.5-60.79 135.5-135.5c0-74.72-60.79-135.5-135.5-135.5zm0 241c-58.17 0-105.5-47.33-105.5-105.5 0-58.18 47.33-105.5 105.5-105.5s105.5 47.32 105.5 105.5c0 58.17-47.33 105.5-105.5 105.5z" fill="#fff066"/><path d="m391.5 194.8c0 74.71-60.79 135.5-135.5 135.5v-30c58.17 0 105.5-47.33 105.5-105.5 0-58.18-47.33-105.5-105.5-105.5v-30c74.71 0 135.5 60.78 135.5 135.5z" fill="#ffc648"/></g></svg>