<svg id="Capa_1" enable-background="new 0 0 512 512" height="512" viewBox="0 0 512 512" width="512" xmlns="http://www.w3.org/2000/svg"><g><path d="m376.5 376.5c0 66.55-53.95 120.5-120.5 120.5h-.11c-66.5-.06-120.39-53.99-120.39-120.5s53.89-120.44 120.39-120.5h.11c66.55 0 120.5 53.95 120.5 120.5z" fill="#ffc648"/><path d="m376.5 376.5c0 66.55-53.95 120.5-120.5 120.5h-.11v-241h.11c66.55 0 120.5 53.95 120.5 120.5z" fill="#fc9d56"/><path d="m330 365.83-8.32-25.61-36.16-5.26-16.17-32.76h-26.92l-16.17 32.76-36.16 5.26-8.32 25.6 26.16 25.51-6.17 36.01 21.78 15.83 32.34-17.01 32.34 17.01 21.78-15.83-6.17-36.01z" fill="#fff066"/><path d="m303.84 391.33 6.17 36.01-21.78 15.83-32.34-17.01v-123.96h13.46l16.17 32.76 36.16 5.26 8.32 25.61z" fill="#ffc648"/><path d="m295.77 246.96c3.34-6.3 5.24-13.47 5.24-21.08 0-24.89-20.24-45.13-45.12-45.13s-45.12 20.24-45.12 45.13c0 7.63 1.91 14.83 5.27 21.14-55.27 17.09-95.54 68.67-95.54 129.48 0 74.67 60.73 135.44 135.39 135.5h.11c74.72 0 135.5-60.79 135.5-135.5 0-60.88-40.36-112.51-95.73-129.54zm-39.88-36.21c8.34 0 15.12 6.79 15.12 15.13 0 8.33-6.78 15.12-15.12 15.12s-15.12-6.79-15.12-15.12c0-8.34 6.78-15.13 15.12-15.13zm.11 271.25h-.11c-58.12-.06-105.39-47.37-105.39-105.5s47.27-105.44 105.39-105.5h.11c58.18 0 105.5 47.33 105.5 105.5s-47.32 105.5-105.5 105.5z" fill="#fff066"/><path d="m391.5 376.5c0 74.71-60.78 135.5-135.5 135.5h-.11v-30h.11c58.18 0 105.5-47.33 105.5-105.5s-47.32-105.5-105.5-105.5h-.11v-30c8.34 0 15.12-6.79 15.12-15.12 0-8.34-6.78-15.13-15.12-15.13v-30c24.88 0 45.12 20.24 45.12 45.13 0 7.61-1.9 14.78-5.24 21.08 55.37 17.03 95.73 68.66 95.73 129.54z" fill="#ffc648"/><path d="m386.39 0h-130.5l.114 110.517 65.134 85.228h.002z" fill="#e21759"/><path d="m321.14 195.74h-130.5l-65.25-195.74h130.5z" fill="#fa8484"/><path d="m321.14 195.74h-65.25v-195.74z" fill="#fd5e60"/></g></svg>