<svg id="Capa_1" enable-background="new 0 0 512 512" height="512" viewBox="0 0 512 512" width="512" xmlns="http://www.w3.org/2000/svg"><g><path d="m322 30c-18.225 0-33 14.775-33 33l-30 201.5h126l-30-111.5v-90c0-18.225-14.775-33-33-33z" fill="#fe6192"/><path d="m124 120c-18.225 0-33 14.775-33 33v81.5l96 30-30-111.5c0-18.225-14.775-33-33-33z" fill="#fda483"/><path d="m190 30c-18.225 0-33 14.775-33 33v201.5h96l-30-201.5c0-18.225-14.775-33-33-33z" fill="#fd8777"/><path d="m289 33c0-18.225-14.775-33-33-33 0 0-30 264.5-30 264.5h63z" fill="#fd8777"/><path d="m223 33v231.5h33v-264.5c-18.225 0-33 14.775-33 33z" fill="#fda483"/><path d="m391 377h-255l120 135h135z" fill="#65eaff"/><path d="m91 437v75h165v-135z" fill="#b2f4ff"/><path d="m256 234.5-60 136.5h195v-136.5z" fill="#fda483"/><path d="m388 120c-18.225 0-33 14.775-33 33v119c-54.721 0-99 44.279-99 99l-60 33 60 33h135l20.346-50.87c6.406-16.016 9.654-32.883 9.654-50.133v-11.497-171.5c0-18.225-14.775-33-33-33z" fill="#fd8777"/><path d="m91 234.5h165v202.5h-165z" fill="#fdc08e"/></g></svg>