<svg id="Capa_1" enable-background="new 0 0 512 512" height="512" viewBox="0 0 512 512" width="512" xmlns="http://www.w3.org/2000/svg"><g><g><path d="m342 316v-180c0-11.05 8.95-20 20-20s20 8.95 20 20v100c0-11.05 8.95-20 20-20s20 8.95 20 20v20c0-11.05 8.95-20 20-20s20 8.95 20 20v20c0-11.05 8.95-20 20-20s20 8.95 20 20v59.09c0 32.85-15.7 62.04-40 80.46v86.45h-120v-85.11c-19.97-14.43-34.58-36.08-39.79-61.66l-20.21-99.23c33.14 0 60 26.86 60 60z" fill="#d0a084"/><path d="m110 130c0-11.05 8.95-20 20-20s20 8.95 20 20v20c0-11.05 8.95-20 20-20s20 8.95 20 20v20c0-11.05 8.95-20 20-20s20 8.95 20 20v59.09c0 32.85-15.7 62.04-40 80.46v192.45h-120v-191.11c-19.97-14.43-34.58-36.08-39.79-61.66l-20.21-99.23c33.14 0 60 26.86 60 60v-180c0-11.05 8.95-20 20-20s20 8.95 20 20z" fill="#fce8d0"/></g><g><path d="m482 246c-3.904 0-7.633.758-11.057 2.121-3.47-12.731-15.127-22.121-28.943-22.121-3.904 0-7.633.758-11.057 2.121-3.47-12.731-15.127-22.121-28.943-22.121-3.506 0-6.87.61-10 1.72v-71.72c0-16.542-13.458-30-30-30s-30 13.458-30 30v131.077c-12.715-12.993-30.427-21.077-50-21.077-3.002 0-5.846 1.349-7.744 3.674-1.899 2.325-2.653 5.38-2.055 8.322l20.21 99.23c5.224 25.646 19.206 48.408 39.589 64.627v80.147c0 5.523 4.478 10 10 10h120c5.522 0 10-4.477 10-10v-81.622c25.487-21.152 40-51.956 40-85.289v-59.089c0-16.542-13.458-30-30-30zm10 89.09c0 28.707-13.137 55.128-36.041 72.491-2.494 1.891-3.959 4.84-3.959 7.969v76.45h-100v-75.11c0-3.21-1.541-6.225-4.143-8.105-18.552-13.405-31.283-33.133-35.849-55.55l-17.441-85.635c21.506 5.588 37.433 25.17 37.433 48.4v20c0 5.523 4.478 10 10 10s10-4.477 10-10c0-8.984 0-190.215 0-200 0-5.514 4.486-10 10-10s10 4.486 10 10v160c0 5.523 4.478 10 10 10s10-4.477 10-10v-60c0-5.514 4.486-10 10-10s10 4.486 10 10v60c0 5.523 4.478 10 10 10s10-4.477 10-10v-40c0-5.514 4.486-10 10-10s10 4.486 10 10v40c0 5.523 4.478 10 10 10s10-4.477 10-10v-20c0-5.514 4.486-10 10-10s10 4.486 10 10z"/><path d="m20.411 251.226c5.224 25.646 19.206 48.408 39.589 64.627v45.147c0 5.523 4.478 10 10 10s10-4.477 10-10v-50.11c0-3.21-1.541-6.225-4.143-8.105-18.552-13.405-31.283-33.133-35.849-55.55l-17.441-85.635c21.506 5.588 37.433 25.17 37.433 48.4v20c0 5.523 4.478 10 10 10s10-4.477 10-10c0-8.984 0-190.215 0-200 0-5.514 4.486-10 10-10s10 4.486 10 10v160c0 5.523 4.478 10 10 10s10-4.477 10-10v-60c0-5.514 4.486-10 10-10s10 4.486 10 10v60c0 5.523 4.478 10 10 10s10-4.477 10-10v-40c0-5.514 4.486-10 10-10s10 4.486 10 10v40c0 5.523 4.478 10 10 10s10-4.477 10-10v-20c0-5.514 4.486-10 10-10s10 4.486 10 10v59.09c0 28.707-13.137 55.128-36.041 72.491-2.494 1.891-3.959 4.84-3.959 7.969v182.45h-100v-41c0-5.523-4.478-10-10-10s-10 4.477-10 10v51c0 5.523 4.478 10 10 10h120c5.522 0 10-4.477 10-10v-187.621c25.487-21.152 40-51.956 40-85.289v-59.09c0-16.542-13.458-30-30-30-3.904 0-7.633.758-11.057 2.121-3.47-12.731-15.127-22.121-28.943-22.121-3.904 0-7.633.758-11.057 2.121-3.47-12.731-15.127-22.121-28.943-22.121-3.506 0-6.87.61-10 1.72v-71.72c0-16.542-13.458-30-30-30s-30 13.458-30 30v131.077c-12.715-12.993-30.427-21.077-50-21.077-3.002 0-5.846 1.349-7.744 3.674-1.899 2.325-2.654 5.38-2.055 8.322z"/><circle cx="70" cy="406" r="10"/></g></g></svg>