<svg id="Capa_1" enable-background="new 0 0 512 512" height="512" viewBox="0 0 512 512" width="512" xmlns="http://www.w3.org/2000/svg"><g><path d="m78.75 47v465h172.5l19-218-19-247z" fill="#edf5ff"/><path d="m251.25 47h182v465h-182z" fill="#d5e8fe"/><path d="m136.5 0v94h114.75l9-50.357-9-43.643z" fill="#613d5c"/><path d="m251.25 0h124.25v94h-124.25z" fill="#4b2746"/><path d="m138.25 362h113v30h-113z" fill="#6aa9ff"/><path d="m138.25 422h113v30h-113z" fill="#6aa9ff"/><path d="m369.856 392.606-21.212-21.212-14.394 14.393-14.394-14.393-21.212 21.212 14.393 14.394-14.393 14.394 21.212 21.212 14.394-14.393 14.394 14.393 21.212-21.212-14.393-14.394z" fill="#2682ff"/><path d="m138.25 302h30v30h-30z" fill="#6aa9ff"/><path d="m343.25 302h30v30h-30z" fill="#2682ff"/><path d="m222.966 250.284c-7.556-7.555-11.716-17.6-11.716-28.284 0-5.459 1.092-10.748 3.162-15.626l36.838 36.839 5-16.213-5-26.213-15.607-15.607c4.975-2.101 10.289-3.162 15.607-3.162l4-15.019-4-14.968c-17.925 0-35.851 6.824-49.497 20.47-13.222 13.222-20.503 30.8-20.503 49.498s7.281 36.276 20.503 49.498c13.647 13.648 31.569 20.472 49.497 20.47l6-14.967-6-15.052c-10.243.004-20.486-3.865-28.284-11.664z" fill="#e64d2e"/><path d="m300.747 172.502c-13.646-13.647-31.571-20.47-49.497-20.47v29.986c10.243 0 20.486 3.899 28.284 11.697 7.556 7.555 11.716 17.6 11.716 28.284 0 5.459-1.092 10.748-3.162 15.626l-36.838-36.839v42.426l15.607 15.607c-4.975 2.101-10.291 3.127-15.607 3.128v30.019c17.923-.001 35.853-6.825 49.497-20.469 13.222-13.222 20.503-30.8 20.503-49.498s-7.281-36.275-20.503-49.497z" fill="#b33c24"/></g></svg>