<svg id="Layer_1" height="512" viewBox="0 0 512 512" width="512" xmlns="http://www.w3.org/2000/svg" data-name="Layer 1"><path d="m124.64 93.66a40.116 40.116 0 0 1 2.97 15.33c0 17.03-10.17 31.09-23.33 33.2l-.26-.06a163.275 163.275 0 0 1 20.62-48.47z" fill="#adf8d1"/><path d="m299.59 74.55c14.8 0 26.78 14.98 26.78 33.47s-11.98 33.48-26.78 33.48c-10.97 0-21.52-8.26-25.65-20.09h-10.05v80.62h-80.34v-10.06c11.82-4.12 20.08-14.68 20.08-25.66 0-14.79-14.98-26.78-33.47-26.78s-33.47 11.99-33.47 26.78c0 10.98 8.26 21.54 20.08 25.66v10.06h-55.9l-.24.03a165.427 165.427 0 0 1 3.39-59.93l.26.06c13.16-2.11 23.33-16.17 23.33-33.2a40.116 40.116 0 0 0 -2.97-15.33 164.483 164.483 0 0 1 139.25-76.67v77.64h10.05c4.13-11.82 14.68-20.08 25.65-20.08z" fill="#ff5576"/><path d="m428.31 176.93a165.364 165.364 0 0 1 -1.25 25.1h-57.16v-10.06c11.82-4.12 20.08-14.68 20.08-25.66 0-14.79-14.98-26.78-33.47-26.78s-33.47 11.99-33.47 26.78c0 10.98 8.26 21.54 20.08 25.66v10.06h-79.23v-80.62h10.05c4.13 11.83 14.68 20.09 25.65 20.09 14.8 0 26.78-14.98 26.78-33.48s-11.98-33.47-26.78-33.47c-10.97 0-21.52 8.26-25.65 20.08h-10.05v-77.64c.5 0 .99.01 1.49.01 88.29.81 160.65 71.8 162.93 159.93z" fill="#adf8d1"/><path d="m348.53 339.3a115.2 115.2 0 0 0 -10.65 48.31v.12h-.98v-.53c-7.85-5.19-12.9-13.52-12.9-22.1 0-12.31 10.38-22.68 24.52-25.81z" fill="#71c2ff"/><path d="m204.6 365.1c0 8.74-5.24 17.22-13.34 22.38v.25h-1.45a117.35 117.35 0 0 0 -9.65-46.67c-.28-.65-.57-1.29-.86-1.93 14.54 2.91 25.3 13.43 25.3 25.97z" fill="#fcca3d"/><path d="m263.88 308.13v79.6h-72.62v-.25c8.1-5.16 13.34-13.64 13.34-22.38 0-12.54-10.76-23.06-25.3-25.97a114.037 114.037 0 0 0 -26.72-36.87 163.761 163.761 0 0 1 -51.95-100.2l.24-.03h55.9v-10.06c-11.82-4.12-20.08-14.68-20.08-25.66 0-14.79 14.98-26.78 33.47-26.78s33.47 11.99 33.47 26.78c0 10.98-8.26 21.54-20.08 25.66v10.06h80.33v79.32h-.78c-4.11-11.83-14.67-20.09-25.65-20.09-14.79 0-26.77 15-26.77 33.48s11.98 33.47 26.77 33.47c10.98 0 21.54-8.25 25.65-20.08z" fill="#71c2ff"/><path d="m369.9 202.03h57.16a163.771 163.771 0 0 1 -51.09 99.43 120.474 120.474 0 0 0 -27.44 37.84l-.01-.01c-14.14 3.13-24.52 13.5-24.52 25.81 0 8.58 5.05 16.91 12.9 22.1v.53h-73.02v-79.6h-.78c-4.11 11.83-14.67 20.08-25.65 20.08-14.79 0-26.77-14.98-26.77-33.47s11.98-33.48 26.77-33.48c10.98 0 21.54 8.26 25.65 20.09h.78v-79.32h79.24v-10.06c-11.82-4.12-20.08-14.68-20.08-25.66 0-14.79 14.98-26.78 33.47-26.78s33.47 11.99 33.47 26.78c0 10.98-8.26 21.54-20.08 25.66z" fill="#fcca3d"/><path d="m336.9 388h-145.64-1.26v35h.42 147.58v-35z" fill="#56568c"/><path d="m337.88 422.73v36.14h-147.46-.61v-36.14h.61z" fill="#4a4a75"/><path d="m337.88 458.87v31.06a5.079 5.079 0 0 1 -5.08 5.07h-137.91a5.072 5.072 0 0 1 -5.08-5.07v-31.06z" fill="#56568c"/><path d="m203.63 166.31c0-10.474-7.518-19.538-18.47-23.94-10.952 4.4-18.47 13.466-18.47 23.94s7.521 20.547 18.47 25.033c10.949-4.486 18.47-14.561 18.47-25.033z" fill="none"/><path d="m134.02 142.13.26.06c13.16-2.11 23.33-16.17 23.33-33.2a40.116 40.116 0 0 0 -2.97-15.33 164.657 164.657 0 0 1 109.25-73.931v-2.739a164.483 164.483 0 0 0 -139.25 76.67 40.116 40.116 0 0 1 2.97 15.33c0 17.03-10.17 31.09-23.33 33.2l-.26-.06a165.427 165.427 0 0 0 -3.39 59.93l.24-.03h29.757a165.392 165.392 0 0 1 3.393-59.9z" fill="#dd476b"/><path d="m233.63 166.31c0-14.79-14.98-26.78-33.47-26.78a40.272 40.272 0 0 0 -15 2.84c10.952 4.4 18.47 13.466 18.47 23.94s-7.521 20.547-18.47 25.033c.532.218 1.063.436 1.61.627v10.06h26.78v-10.06c11.82-4.12 20.08-14.68 20.08-25.66z" fill="#dd476b"/><path d="m183.55 202.03h3.22v-10.06c-.547-.191-1.078-.409-1.61-.627-.532.218-1.063.436-1.61.627z" fill="none"/><path d="m234.6 365.1c0-12.54-10.76-23.06-25.3-25.97a114.037 114.037 0 0 0 -26.72-36.87 163.761 163.761 0 0 1 -51.95-100.2l.24-.03h-30l-.24.03a163.761 163.761 0 0 0 51.95 100.2 114.037 114.037 0 0 1 26.72 36.87c14.54 2.91 25.3 13.43 25.3 25.97 0 8.74-5.24 17.22-13.34 22.38v.25h30v-.25c8.1-5.16 13.34-13.64 13.34-22.38z" fill="#5faddd"/><path d="m183.55 191.97c.547-.191 1.078-.409 1.61-.627-10.949-4.486-18.47-14.561-18.47-25.033s7.518-19.538 18.47-23.94a40.272 40.272 0 0 0 -15-2.84c-18.49 0-33.47 11.99-33.47 26.78 0 10.98 8.26 21.54 20.08 25.66v10.06h26.78z" fill="#5faddd"/><path d="m190.42 422.73h-.61v36.14h.61 29.39v-36.14z" fill="#39395b"/><path d="m191.26 388h-1.26v35h.42 29.58v-35z" fill="#4a4a75"/><path d="m219.81 489.93v-31.06h-30v31.06a5.072 5.072 0 0 0 5.08 5.07h30a5.072 5.072 0 0 1 -5.08-5.07z" fill="#4a4a75"/><g fill="#d4e1f4"><path d="m89.146 269.782a6 6 0 0 1 -5.427-3.434c-2.04-4.308-3.949-8.746-5.675-13.19a6 6 0 0 1 11.187-4.343c1.622 4.177 3.416 8.348 5.333 12.4a6 6 0 0 1 -5.418 8.569z"/><path d="m155.977 364.216a6 6 0 0 1 -5.658-4 80.088 80.088 0 0 0 -21.242-32.305 198.7 198.7 0 0 1 -33.6-40.2 6 6 0 1 1 10.139-6.417 186.682 186.682 0 0 0 31.57 37.768 92.147 92.147 0 0 1 24.448 37.155 6 6 0 0 1 -5.658 8z"/></g></svg>