<?xml version="1.0" encoding="iso-8859-1"?>
<!-- Generator: Adobe Illustrator 21.0.0, SVG Export Plug-In . SVG Version: 6.00 Build 0)  -->
<svg xmlns="http://www.w3.org/2000/svg" xmlns:xlink="http://www.w3.org/1999/xlink" version="1.1" id="Capa_1" x="0px" y="0px" viewBox="0 0 512 512" style="enable-background:new 0 0 512 512;" xml:space="preserve" width="512" height="512">
<g>
	<g>
		<path style="fill:#FFDFCF;" d="M74.977,334.332h83.132l-4.235,16.044c-7.106,26.917-5.736,54.938,3.963,81.037l0.139,0.372    c12.083,32.516,42.28,54.565,76.932,56.174l23.642,1.097v-74.645l82.659-103.062h50.237v-15h0V75.718h0v-15h-65.592    l-54.949-37.774H74.977C33.635,22.944,0,56.579,0,97.921v161.434C0,300.697,33.635,334.332,74.977,334.332z"/>
		<path style="fill:#FFCEBF;" d="M0,175.763v83.592c0,41.342,33.635,74.977,74.977,74.977h83.132l-4.235,16.044    c-7.106,26.917-5.736,54.938,3.963,81.037l0.139,0.372c12.083,32.516,42.28,54.565,76.932,56.174l23.642,1.097v-74.645    l82.659-103.062h50.237v-15h0V175.763H0z"/>
		<g>
			<rect y="227.967" style="fill:#F6B1AE;" width="67.108" height="30"/>
		</g>
		<g>
			<rect y="161.009" style="fill:#FFCEBF;" width="67.108" height="30"/>
		</g>
		<g>
			<rect y="94.052" style="fill:#FFCEBF;" width="67.108" height="30"/>
		</g>
	</g>
	<g>
		<g>
			<rect y="175.763" style="fill:#F6B1AE;" width="67.108" height="15.246"/>
		</g>
	</g>
	<rect x="378.214" y="38.356" style="fill:#0082FF;" width="133.786" height="295.354"/>
	<rect x="378.214" y="175.763" style="fill:#00317E;" width="133.786" height="157.948"/>
</g>















</svg>
